<svg xmlns="http://www.w3.org/2000/svg" width="801.98" height="160.67" viewBox="0 0 801.98 160.67"><g id="Layer_2" data-name="Layer 2"><g id="Layer_1-2" data-name="Layer 1"><path d="M4.35,103.22c-.58-2.3-.9-3.84-1.37-5.33C.09,88.81,0,79.32,1.38,70.25,3.82,54.55,9.87,40.1,20.64,27.94,32,15.06,46,6.43,62.71,2.65,81.52-1.61,99.81.39,117.08,9.29c18.67,9.61,31.6,24.42,38.83,44.06a77.22,77.22,0,0,1,3.37,41.08c-4.12,22.76-16,40.5-35.28,53.11-14.28,9.32-30.07,13.34-47.16,12.53-18.71-.88-35-7.7-48.95-19.91a78.78,78.78,0,0,1-20.73-29,2.52,2.52,0,0,1,.78-3.29q13-11.16,25.9-22.36c1.22-1,2.13-.81,3.2.29,10.18,10.53,20.43,21,30.59,31.57,1.43,1.48,2.41,1.6,3.86.06Q87,101,102.62,84.63c2.41-2.53,4.86-5,7.21-7.62,1.23-1.36,2.1-1.08,3.27.1,5.17,5.2,10.4,10.33,15.62,15.47a14.15,14.15,0,0,0,1.27,1,11.91,11.91,0,0,0,.48-2c.22-9.48.41-19,.63-28.45.12-5.41.23-10.81.43-16.21.08-2.08-.57-3-2.82-3-15,.06-30,0-45,0a17.64,17.64,0,0,0-1.94.27,25.56,25.56,0,0,0,1.81,2.46c4.75,5,9.5,10,14.32,15,1.21,1.25,1.42,2.07.07,3.48C89.64,73.8,81.4,82.61,73.14,91.42c-3.29,3.52-3.25,3.53-6.66.15C56.84,82,47.16,72.5,37.58,62.88c-1.65-1.65-2.55-1.52-3.85.29Q20.24,81.92,6.64,100.6C6.09,101.36,5.4,102,4.35,103.22Z" fill="#fff" stroke="#fff" stroke-miterlimit="10"/><path d="M183.13,41.23c.67-5.43.76-11,2.15-16.24,2.34-8.86,8.77-13.94,17.61-15.73C210,7.83,217.09,8,223.9,11c8.55,3.85,12.77,10.82,13.41,19.78a140.23,140.23,0,0,1,0,21.69c-.89,10.64-6.72,18.82-18.8,21.14a37.42,37.42,0,0,1-18.75-.74C189.83,69.74,185,62.4,184.08,52.26c-.32-3.64-.38-7.3-.57-10.95Zm13.74,0,.74.07c0,3.32-.2,6.66,0,10,.57,7.59,5.28,11.93,12.84,12.13,6.73.18,12.32-3.62,12.82-10a163.54,163.54,0,0,0,0-23.84c-.39-5.73-5.53-9.72-11.53-10.24-5.82-.51-11.48,2.55-13,8C197.58,31.76,197.47,36.56,196.87,41.23Z" fill="#fff" stroke="#fff" stroke-miterlimit="10"/><path d="M259.9,30.17c1.73-1.23,3.12-2.59,4.79-3.34,10.13-4.54,24.53-1.94,27.6,13,1.68,8.16,1.84,16.3-1.49,24.24C286,75.56,270.89,76.9,263,71.24l-2.82-2c-.1,1.34-.21,2.11-.22,2.89,0,5.08,0,10.16,0,15.23,0,2.77-.66,3.39-3.39,3.45-1.83,0-3.66,0-5.5,0-3,0-3.62-.71-3.62-3.76q0-15.48,0-31V29.62c0-3.28.61-3.87,4-3.89h2.74C258.65,25.73,258.65,25.73,259.9,30.17Zm-.3,19.64a63.1,63.1,0,0,0,1.17,7.57,9.38,9.38,0,0,0,9.07,6.9c4.6.12,8.07-2.13,9.51-6.53a26.52,26.52,0,0,0-.1-16.64,8.09,8.09,0,0,0-7.34-5.86c-3.93-.41-7.47.3-9.79,4C260.07,42.47,259.67,46,259.6,49.81Z" fill="#fff" stroke="#fff" stroke-miterlimit="10"/><path d="M328.77,53.33c-4.41,0-8.83,0-13.24,0-2.09,0-3,.74-2.29,2.88a29.52,29.52,0,0,0,1.48,4.21c3.19,6.1,10.44,7,15.51,1.79a6.92,6.92,0,0,1,5.63-2.47c1.66.07,3.33,0,5,0,3.16.12,4.28,1.67,2.62,4.34A21.55,21.55,0,0,1,338,70c-7.89,5.71-20.73,5.91-28.58.78-4.76-3.11-7.31-7.6-8.45-13-1.31-6.22-1.42-12.47.65-18.5C305.39,28.14,314.33,24.2,325.32,25c13,.89,19.25,10.41,19.93,20.69.51,7.7.68,7.69-7,7.68Zm-6.28-8.19c2.66,0,5.33.09,8-.07.69,0,1.83-.77,1.91-1.31.49-3.08-2.17-7.63-5.14-9.1-6.57-3.25-13.4.88-14.12,8.85,0,.48,1.19,1.49,1.88,1.54C317.48,45.25,320,45.13,322.49,45.14Z" fill="#fff" stroke="#fff" stroke-miterlimit="10"/><path d="M366.84,30.14c.86-.6,1.53-1,2.16-1.52,7.27-5.48,22.29-6.23,28.07,5.51a25.69,25.69,0,0,1,2.29,10.08c.32,8.57.12,17.16.1,25.75,0,2.94-.45,3.37-3.28,3.39-2.09,0-4.17,0-6.25,0-2.67,0-3.4-.76-3.4-3.46,0-8,0-16,0-24a14.93,14.93,0,0,0-.73-4.9c-1.61-4.42-5.49-6.41-10.69-5.77-4.22.52-7.92,3.93-8.08,8.26-.33,8.48-.28,17-.36,25.47,0,4.11-.28,4.4-4.39,4.4-1.84,0-3.67,0-5.5,0S354,72.59,354,70.69q0-21.13,0-42.25a2.46,2.46,0,0,1,2.64-2.68c1.41-.1,2.83,0,4.25,0C365.31,25.73,365.31,25.73,366.84,30.14Z" fill="#fff" stroke="#fff" stroke-miterlimit="10"/><path d="M193.68,101.56c-.07.87-.19,1.73-.19,2.6q0,21.24,0,42.5c0,2.78-1.36,4.05-3.74,3.59-2.07-.4-2.49-1.81-2.48-3.69,0-9.58,0-19.17,0-28.75q0-13.87,0-27.75c0-1.6-.16-3.35,1.93-3.8s4.09-.44,5.3,2c3.51,7,7.1,13.94,10.67,20.9q3.93,7.65,7.94,15.27a7.37,7.37,0,0,0,1.45,1.51,8.31,8.31,0,0,0,1.39-1.59q7.63-14.73,15.21-29.49c1.18-2.3,2.49-4.53,3.58-6.86s3-2,4.92-1.78c2.13.27,1.87,2,1.87,3.49,0,19,0,38,0,57,0,2.22-.61,3.55-3,3.61-2.12.06-3.24-1.2-3.24-3.77q0-20.86,0-41.74c0-1-.13-1.9-.25-3.52a13.59,13.59,0,0,0-1.46,1.72c-4.72,9.35-9.46,18.7-14.11,28.09-1.1,2.23-2.21,3.82-5.14,3.83s-3.9-1.73-4.93-3.78q-7.16-14.28-14.32-28.55a8.59,8.59,0,0,0-.8-1.13Z" fill="#fff" stroke="#fff" stroke-miterlimit="10"/><path d="M435.4,106.13a17.67,17.67,0,0,1,13.9-4.46,15.41,15.41,0,0,1,12.47,7.74c1.19-1.15,2.2-2.08,3.15-3.06,6.68-7,22.89-7.28,27.9,5a25.45,25.45,0,0,1,2,8.59c.27,9,.06,18,.18,27,0,2.35-1.21,3.19-3.12,3.29-2.08.12-3.27-1.05-3.29-3.2,0-3.17,0-6.33,0-9.5,0-5.83.08-11.67,0-17.5-.14-8.12-4.92-13-12.43-12.84a11.49,11.49,0,0,0-10.94,9.87,70.52,70.52,0,0,0-.34,9c0,6.67,0,13.34,0,20,0,1-.11,2.47-.76,3a4.22,4.22,0,0,1-3.47.9,3.86,3.86,0,0,1-1.88-3c-.15-8.92,0-17.83-.1-26.75,0-6.59-3.3-11-9.22-12.67s-12.81,2.45-14,8.5a34.83,34.83,0,0,0-.62,6.19c-.07,7.84,0,15.67,0,23.5,0,1,.07,2.24-.48,2.87a4.17,4.17,0,0,1-3,1.55c-.93-.11-1.77-1.37-2.51-2.24-.25-.31-.1-1-.1-1.47,0-13.42,0-26.83.07-40.25a4.43,4.43,0,0,1,1.48-3.29c.77-.51,2.43-.19,3.42.31C434.35,103.58,434.65,104.82,435.4,106.13Z" fill="#fff" stroke="#fff" stroke-miterlimit="10"/><path d="M337.11,145.46c-.81.57-1.28.87-1.71,1.21-6.93,5.47-14.58,5.76-22.33,2.48-5.38-2.28-7.9-7.35-9.25-12.69a38.05,38.05,0,0,1,.89-22.83c3.11-8.47,10-12.78,19.07-12a19.44,19.44,0,0,1,11.83,4.67,11.2,11.2,0,0,0,1.6.89c.1-1.17.22-2,.22-2.89,0-5.24,0-10.49,0-15.73,0-2.13.82-3.33,3.05-3.33s3,1.3,3,3.39q0,29.22,0,58.44c0,2.06-.78,3.2-2.83,3.26s-3.19-.77-3.15-2.95A11.72,11.72,0,0,0,337.11,145.46Zm.41-19.28c-.09-2,0-4-.29-6a14.22,14.22,0,0,0-11.05-12.65c-5.66-1.34-12.45.51-15.18,6.59-3.25,7.21-3.09,14.52-1,21.92,1.41,4.95,4.51,8.14,9.74,9.23a13.82,13.82,0,0,0,15.36-7A22.54,22.54,0,0,0,337.52,126.18Z" fill="#fff" stroke="#fff" stroke-miterlimit="10"/><path d="M276.9,128.7c-4.84,0-9.67,0-14.5,0-1.54,0-2.71.36-2.46,2.24.73,5.63,3.61,11.75,10.17,13.89a14.77,14.77,0,0,0,16.12-5,4.54,4.54,0,0,1,4.3-1.86c2.15.2,3,1.45,2,3.41-1.81,3.7-4.92,6-8.58,7.64-8,3.56-19.2,2.82-25.07-4.83A25,25,0,0,1,254,130.32c-.48-7.3-.17-14.51,4.24-20.85,5.16-7.44,12.6-8.93,20.78-7.41,7.62,1.42,12.17,6.61,14.09,13.92a59.24,59.24,0,0,1,1.19,9.62c.21,2.23-1,3.15-3.16,3.12C286.39,128.67,281.64,128.71,276.9,128.7Zm-2.66-5.16c3.82,0,7.64-.08,11.46,0,2.17.06,2.75-.85,2.59-2.86-.64-7.84-6.56-13.49-14.26-13.51a14.3,14.3,0,0,0-14.1,13.43c-.16,1.94.43,3,2.59,2.92C266.43,123.47,270.33,123.54,274.24,123.54Z" fill="#fff" stroke="#fff" stroke-miterlimit="10"/><path d="M409,145.42c-.93.62-1.55,1-2.09,1.41-6.58,5.53-14.09,5.58-21.36,2.44-6.9-3-9.3-9.55-9.53-16.64-.29-9,0-18-.1-27,0-2.09.82-3.16,2.89-3.18,2.23,0,3,1.2,3,3.35-.06,8.09-.1,16.17,0,24.25a26.35,26.35,0,0,0,1,7.13c2.25,7.45,9.51,9.32,15.44,8,7.05-1.58,11-6.74,11-14.09.06-8,0-16,0-24,0-.75-.22-1.65.11-2.22.52-.9,1.38-2.19,2.15-2.23a5.45,5.45,0,0,1,3.32,1.44c.49.4.47,1.55.47,2.36q0,19.88,0,39.75c0,.81,0,1.91-.43,2.38-.8.79-2.05,1.69-3,1.59s-1.84-1.31-2.51-2.22C409,147.45,409.16,146.58,409,145.42Z" fill="#fff" stroke="#fff" stroke-miterlimit="10"/><path d="M363,126.28q0,10,0,20c0,2.81-1,4.1-3.19,4s-3-1.33-3-4q0-20,0-40c0-2.78.92-3.89,3.06-3.85s3.13,1.19,3.13,3.84C363,113,363,119.63,363,126.28Z" fill="#fff" stroke="#fff" stroke-miterlimit="10"/><path d="M359.74,93c-3.34,0-3.86-.56-3.83-4s.63-3.87,4.48-3.84c2.89,0,3.67.86,3.68,4S363.28,93,359.74,93Z" fill="#fff" stroke="#fff" stroke-miterlimit="10"/><path d="M588.85,149.33a18.4,18.4,0,0,1-3.11-3.8L529.58,61v85a4.73,4.73,0,0,1-4.66,4.67h-7.09a4.73,4.73,0,0,1-4.66-4.67V34.42a4.73,4.73,0,0,1,4.66-4.67h6a5.51,5.51,0,0,1,3.8,1.39,18,18,0,0,1,3.11,3.8L587,119.44v-85a4.75,4.75,0,0,1,4.67-4.67h7.08A4.52,4.52,0,0,1,602,31.14a4.47,4.47,0,0,1,1.38,3.28V146.05a4.73,4.73,0,0,1-4.67,4.67h-6A5.51,5.51,0,0,1,588.85,149.33Z" fill="#fff" stroke="#fff" stroke-miterlimit="10" stroke-width="4"/><path d="M696,31.14a4.47,4.47,0,0,1,1.38,3.28v6.22a4.73,4.73,0,0,1-4.67,4.67H635.85V85.22h53.4a4.73,4.73,0,0,1,4.66,4.67v6.22a4.73,4.73,0,0,1-4.66,4.67h-53.4v45.27a4.73,4.73,0,0,1-4.67,4.67H624.1a4.75,4.75,0,0,1-4.67-4.67V34.42a4.75,4.75,0,0,1,4.67-4.67h68.6A4.52,4.52,0,0,1,696,31.14Z" fill="#fff" stroke="#fff" stroke-miterlimit="10" stroke-width="4"/><path d="M798.59,31.14A4.48,4.48,0,0,1,800,34.42v6.22a4.75,4.75,0,0,1-4.67,4.67H763V146.05a4.75,4.75,0,0,1-4.67,4.67h-7.09a4.73,4.73,0,0,1-4.66-4.67V45.31H714.27a4.73,4.73,0,0,1-4.67-4.67V34.42a4.73,4.73,0,0,1,4.67-4.67h81A4.48,4.48,0,0,1,798.59,31.14Z" fill="#fff" stroke="#fff" stroke-miterlimit="10" stroke-width="4"/></g></g></svg>