<svg xmlns="http://www.w3.org/2000/svg" width="978.05" height="144.65" viewBox="0 0 978.05 144.65"><g id="Layer_2" data-name="Layer 2"><g id="Layer_1-2" data-name="Layer 1"><path d="M219.8,29A31.35,31.35,0,0,1,232,41.64a39.88,39.88,0,0,1,4.46,17.78c.17,5.18.26,9,.26,11.51s-.09,6.34-.26,11.51a41.09,41.09,0,0,1-4.59,17.79,31.5,31.5,0,0,1-12.16,12.61q-8,4.65-19,4.65t-18.94-4.65a31.37,31.37,0,0,1-12.16-12.61,41.09,41.09,0,0,1-4.59-17.79Q165,78.57,165,70.93t.13-11.51a39.74,39.74,0,0,1,4.46-17.78A31.26,31.26,0,0,1,181.78,29q8-4.65,19-4.65T219.8,29ZM184.11,42.09q-6.35,6.09-6.73,18c-.08,2.59-.13,6.21-.13,10.86s.05,8.28.13,10.87q.39,11.9,6.73,18t16.68,6.07q10.35,0,16.69-6.07t6.72-18q.26-7.77.26-10.87c0-2.06-.09-5.69-.26-10.86q-.39-11.9-6.72-18T200.79,36Q190.44,36,184.11,42.09Z"/><path d="M311,29.81q2.07-4.14,5.69-4.14h4.92a3.52,3.52,0,0,1,3.49,3.49v83.55a3.53,3.53,0,0,1-3.49,3.49h-5.3a3.55,3.55,0,0,1-3.5-3.49V51.4L292.61,90.33a9.81,9.81,0,0,1-2.26,3.11,4.59,4.59,0,0,1-3,1h-4.92a4.55,4.55,0,0,1-3-1,9.66,9.66,0,0,1-2.26-3.11L256.91,51.4v61.31a3.53,3.53,0,0,1-3.49,3.49h-5.3a3.53,3.53,0,0,1-3.49-3.49V29.16a3.52,3.52,0,0,1,3.49-3.49H253c2.42,0,4.31,1.38,5.69,4.14l26.13,50.56Z"/><path d="M375.77,97.71a14.37,14.37,0,0,0,8.15,2.32,19.1,19.1,0,0,0,5.95-.77,12,12,0,0,0,4-2.2A13.72,13.72,0,0,1,396,95.57a5.42,5.42,0,0,1,2.2-.32H415A2.83,2.83,0,0,1,417,96a2.8,2.8,0,0,1,.78,2.07c0,1.73-1.3,4.16-3.88,7.31s-6.43,5.95-11.51,8.41-11.26,3.68-18.5,3.68q-16.68,0-25.8-9.24T349,82.57a38.83,38.83,0,0,1,4.08-18.1,29.41,29.41,0,0,1,12-12.35q7.89-4.47,18.88-4.47,12,0,19.85,5.11A30.46,30.46,0,0,1,415.22,66a40.85,40.85,0,0,1,3.62,16.87v3.62a3.52,3.52,0,0,1-3.49,3.49H372.28C372.28,93.57,373.45,96.15,375.77,97.71Zm19.79-22.12A12.25,12.25,0,0,0,392,68.15a12.27,12.27,0,0,0-16.17,0,12.27,12.27,0,0,0-3.56,7.44Z"/><path d="M497,111.41a3.22,3.22,0,0,1,.51,1.81,2.85,2.85,0,0,1-.9,2.07,3,3,0,0,1-2.2.91H474.58a3.7,3.7,0,0,1-2.33-.71,14.67,14.67,0,0,1-1.81-1.75l-10.73-13.58L449.1,113.74a13.39,13.39,0,0,1-1.81,1.75,3.67,3.67,0,0,1-2.32.71H425.18a3,3,0,0,1-2.2-.91,2.86,2.86,0,0,1-.91-2.07,3.23,3.23,0,0,1,.52-1.81l22.89-29.35L423.24,53.73a3.13,3.13,0,0,1-.52-1.81,2.85,2.85,0,0,1,.91-2.07,3,3,0,0,1,2.2-.9h20a3.68,3.68,0,0,1,2.33.71A13.88,13.88,0,0,1,450,51.4l10,12.81,10-12.81a13.28,13.28,0,0,1,1.81-1.74,3.68,3.68,0,0,1,2.33-.71h20a3,3,0,0,1,2.2.9,2.88,2.88,0,0,1,.9,2.07,3.2,3.2,0,0,1-.51,1.81L474.32,82.57Z"/><path d="M531.55,94.6a11.81,11.81,0,0,0,8.21,2.85,14.26,14.26,0,0,0,6.34-1.17A10,10,0,0,0,550,92.79a7,7,0,0,1,1.62-1.94,3.4,3.4,0,0,1,2.13-.65h16.94a3.5,3.5,0,0,1,2.46,1,3,3,0,0,1,1,2.27q0,3.75-3.24,9.37T560,113q-7.69,4.53-20.24,4.52a40.74,40.74,0,0,1-17.52-3.68A31.25,31.25,0,0,1,509.7,103.4a28,28,0,0,1-5-15.65l-.13-5.18.13-5.17a28,28,0,0,1,5-15.65,31.25,31.25,0,0,1,12.54-10.41,40.59,40.59,0,0,1,17.52-3.69q12.42,0,20,4.4t10.86,10q3.24,5.57,3.5,9.44a2.9,2.9,0,0,1-1,2.46,3.6,3.6,0,0,1-2.53,1H553.73a3.39,3.39,0,0,1-2.13-.64A7,7,0,0,1,550,72.36a9.88,9.88,0,0,0-3.88-3.49,14.26,14.26,0,0,0-6.34-1.17,11.81,11.81,0,0,0-8.21,2.85,10.82,10.82,0,0,0-3.55,7.5c-.09.86-.13,2.37-.13,4.52s0,3.67.13,4.53A10.84,10.84,0,0,0,531.55,94.6Z"/><path d="M653.44,115.16a3.32,3.32,0,0,1-2.45,1h-16.3a3.53,3.53,0,0,1-3.49-3.49V80c0-3.8-.93-6.79-2.78-9s-4.68-3.3-8.47-3.3-6.49,1.08-8.35,3.23-2.78,5.18-2.78,9.06v32.72a3.53,3.53,0,0,1-3.49,3.49H589a3.55,3.55,0,0,1-3.5-3.49V27.87a3.53,3.53,0,0,1,3.5-3.49h16.29a3.52,3.52,0,0,1,3.49,3.49V55.41A20.46,20.46,0,0,1,616.07,50a23.36,23.36,0,0,1,10.34-2.33q13.07,0,20.57,7.38t7.5,22.11v35.57A3.34,3.34,0,0,1,653.44,115.16Z"/><path d="M707.63,72.23q0-7.11-7.5-7.12a10.34,10.34,0,0,0-7,2.33,4.72,4.72,0,0,1-2.07,1.3,11.12,11.12,0,0,1-2.59.25H672.07a3,3,0,0,1-2.14-.77,2.33,2.33,0,0,1-.71-2.07q.39-4,4.46-8.34a31.6,31.6,0,0,1,11.06-7.25,39.62,39.62,0,0,1,15.39-2.91q15.39,0,23.09,7t7.69,18.88v39.19a3.53,3.53,0,0,1-3.49,3.49h-16.3a3.55,3.55,0,0,1-3.49-3.49v-3.62a22,22,0,0,1-8,6.27,28.35,28.35,0,0,1-11.77,2.13q-10.86,0-17-5.69a19.16,19.16,0,0,1-6.15-14.74,17.63,17.63,0,0,1,6.73-14.23q6.72-5.55,21.08-8Zm-11.9,17.2A12.78,12.78,0,0,0,690,91.69a4.85,4.85,0,0,0-2.07,4q0,4.39,6.21,4.39a13.48,13.48,0,0,0,9.57-3.62,11.55,11.55,0,0,0,3.88-8.79Z"/><path d="M813.42,115.16a3.33,3.33,0,0,1-2.46,1H794.67a3.53,3.53,0,0,1-3.49-3.49V80c0-3.8-.93-6.79-2.78-9s-4.68-3.3-8.48-3.3-6.48,1.08-8.34,3.23S768.8,76.11,768.8,80v32.72a3.53,3.53,0,0,1-3.49,3.49H749a3.55,3.55,0,0,1-3.49-3.49V52.44A3.53,3.53,0,0,1,749,49h15.65a3.53,3.53,0,0,1,3.5,3.49v3q6.08-7.75,18.23-7.76,13.07,0,20.56,7.38t7.5,22.11v35.57A3.33,3.33,0,0,1,813.42,115.16Z"/><path d="M873.43,107.15a32.76,32.76,0,0,1-3.95,4,16.23,16.23,0,0,1-5.3,2.65,29.15,29.15,0,0,1-8.73,1.1q-12.29,0-20.37-7.44t-8.6-21.53l-.13-4.66.13-4.53q.53-14.22,8.6-21.66t20.37-7.44q13.06,0,18.63,7.76v-3A3.52,3.52,0,0,1,877.57,49h15a3.52,3.52,0,0,1,3.49,3.49v63q0,14.1-9.7,21.67t-25.61,7.56q-12.29,0-19.65-3.81t-10.29-9a22.86,22.86,0,0,1-3.16-10,2.85,2.85,0,0,1,1-2.46,3.56,3.56,0,0,1,2.52-1H848a4.23,4.23,0,0,1,4,2.58,7.77,7.77,0,0,0,3,3.11,12.31,12.31,0,0,0,6,1.16,15.77,15.77,0,0,0,8.86-2.33,7.55,7.55,0,0,0,3.56-6.72ZM852.93,92q2.91,2.85,8.34,2.85a11.24,11.24,0,0,0,7.89-2.72,11.37,11.37,0,0,0,3.62-6.85,23.63,23.63,0,0,0,.26-4.14,22.62,22.62,0,0,0-.26-4,10.67,10.67,0,0,0-3.49-6.72,11.44,11.44,0,0,0-8-2.72q-5.29,0-8.28,2.78a11.2,11.2,0,0,0-3.36,7.57c-.08.86-.13,1.89-.13,3.1s0,2.37.13,3.23A11.53,11.53,0,0,0,852.93,92Z"/><path d="M935,97.71a14.35,14.35,0,0,0,8.15,2.32,19,19,0,0,0,5.94-.77,12,12,0,0,0,4-2.2,13.72,13.72,0,0,1,2.07-1.49,5.46,5.46,0,0,1,2.2-.32h16.81A2.67,2.67,0,0,1,977,98.09c0,1.73-1.29,4.16-3.88,7.31s-6.42,5.95-11.51,8.41-11.25,3.68-18.49,3.68q-16.7,0-25.81-9.24t-9.11-25.68a38.83,38.83,0,0,1,4.07-18.1,29.47,29.47,0,0,1,12-12.35q7.89-4.47,18.89-4.47,12,0,19.85,5.11A30.44,30.44,0,0,1,974.43,66a40.69,40.69,0,0,1,3.62,16.87v3.62a3.52,3.52,0,0,1-3.49,3.49H931.5C931.5,93.57,932.66,96.15,935,97.71Zm19.78-22.12a12.25,12.25,0,0,0-3.55-7.44,12.27,12.27,0,0,0-16.17,0,12.25,12.25,0,0,0-3.55,7.44Z"/><path d="M3.44,91.77c-.52-2-.8-3.43-1.22-4.76A54,54,0,0,1,.78,62.31C3,48.29,8.37,35.38,18,24.51A70,70,0,0,1,55.58,1.92c16.8-3.81,33.14-2,48.58,5.93,16.67,8.59,28.22,21.82,34.69,39.36a69.09,69.09,0,0,1,3,36.71c-3.67,20.33-14.26,36.18-31.51,47.45A69.25,69.25,0,0,1,68.2,142.56a69.78,69.78,0,0,1-43.73-17.79A70.19,70.19,0,0,1,6,98.84a2.26,2.26,0,0,1,.7-2.94q11.58-10,23.14-20c1.09-.94,1.9-.72,2.85.26C41.74,85.6,50.89,95,60,104.39c1.27,1.33,2.15,1.43,3.44.06Q77.28,89.76,91.23,75.16c2.16-2.26,4.35-4.49,6.44-6.8,1.1-1.22,1.88-1,2.93.09,4.61,4.64,9.29,9.22,14,13.82.25.24.57.42,1.14.85a9.58,9.58,0,0,0,.42-1.81c.21-8.47.37-17,.57-25.42.11-4.83.2-9.66.38-14.48.07-1.86-.51-2.7-2.52-2.7-13.4.06-26.79,0-40.19,0a14.7,14.7,0,0,0-1.74.24,25.4,25.4,0,0,0,1.62,2.2c4.24,4.48,8.49,9,12.79,13.39,1.09,1.12,1.28,1.85.07,3.11C79.64,65.48,72.27,73.36,64.9,81.22c-3,3.15-2.91,3.16-6,.14-8.61-8.54-17.27-17-25.83-25.63-1.46-1.48-2.27-1.36-3.43.26q-12,16.75-24.2,33.44C5,90.1,4.38,90.7,3.44,91.77Z"/></g></g></svg>